HIERARCHY
ROOT Hips
{
	OFFSET 0.000000 88.474243 0.000000
	CHANNELS 6 Xposition Yposition Zposition Zrotation Yrotation Xrotation 
	JOINT Hips_Spine
	{
		OFFSET 0.000000 0.000000 0.000000
		CHANNELS 3 Zrotation Yrotation Xrotation
		JOINT Spine
		{
			OFFSET 0.005100 8.711998 -0.691000
			CHANNELS 3 Zrotation Yrotation Xrotation
			JOINT Spine1
			{
				OFFSET -0.009200 8.660301 -1.275000
				CHANNELS 3 Zrotation Yrotation Xrotation
				JOINT Spine2
				{
					OFFSET 0.006300 9.852501 -1.857000
					CHANNELS 3 Zrotation Yrotation Xrotation
					JOINT Spine2_Neck
					{
						OFFSET 0.000000 0.000000 0.000000
						CHANNELS 3 Zrotation Yrotation Xrotation
						JOINT Neck
						{
							OFFSET 0.016300 11.420799 -0.263300
							CHANNELS 3 Zrotation Yrotation Xrotation
							End Site #name: Head
							{
								OFFSET -0.019200 9.262405 2.362500
							}
						}
					}
					JOINT Spine2_LeftShoulder
					{
						OFFSET 0.000000 0.000000 0.000000
						CHANNELS 3 Zrotation Yrotation Xrotation
						JOINT LeftShoulder
						{
							OFFSET 5.616900 6.732201 -0.345700
							CHANNELS 3 Zrotation Yrotation Xrotation
							JOINT LeftArm
							{
								OFFSET 10.664888 -0.183372 -2.440700
								CHANNELS 3 Zrotation Yrotation Xrotation
								JOINT LeftForeArm
								{
									OFFSET 27.459126 0.000000 0.000000
									CHANNELS 3 Zrotation Yrotation Xrotation
									End Site #name: LeftHand
									{
										OFFSET 21.306858 0.000000 0.000000
									}
								}
							}
						}
					}
					JOINT Spine2_RightShoulder
					{
						OFFSET 0.000000 0.000000 0.000000
						CHANNELS 3 Zrotation Yrotation Xrotation
						JOINT RightShoulder
						{
							OFFSET -5.580300 6.737503 -0.344400
							CHANNELS 3 Zrotation Yrotation Xrotation
							JOINT RightArm
							{
								OFFSET -10.679335 -0.188484 -2.383900
								CHANNELS 3 Zrotation Yrotation Xrotation
								JOINT RightForeArm
								{
									OFFSET -27.503529 0.000000 0.000000
									CHANNELS 3 Zrotation Yrotation Xrotation
									End Site #name: RightHand
									{
										OFFSET -21.306808 0.000000 0.000000
									}
								}
							}
						}
					}
				}
			}
		}
	}
	JOINT Hips_LeftUpLeg
	{
		OFFSET 0.000000 0.000000 0.000000
		CHANNELS 3 Zrotation Yrotation Xrotation
		JOINT LeftUpLeg
		{
			OFFSET 6.857700 -6.739601 0.312100
			CHANNELS 3 Zrotation Yrotation Xrotation
			JOINT LeftLeg
			{
				OFFSET -0.367590 -34.731552 -4.572400
				CHANNELS 3 Zrotation Yrotation Xrotation
				End Site #name: LeftFoot
				{
					OFFSET 0.367590 -34.656704 -6.067400
				}
			}
		}
	}
	JOINT Hips_RightUpLeg
	{
		OFFSET 0.000000 0.000000 0.000000
		CHANNELS 3 Zrotation Yrotation Xrotation
		JOINT RightUpLeg
		{
			OFFSET -6.876100 -6.733299 0.301000
			CHANNELS 3 Zrotation Yrotation Xrotation
			JOINT RightLeg
			{
				OFFSET 0.347353 -34.795158 -4.515900
				CHANNELS 3 Zrotation Yrotation Xrotation
				End Site #name: RightFoot
				{
					OFFSET -0.347353 -34.589367 -6.070300
				}
			}
		}
	}
}
MOTION
Frames: 12
Frame Time: 0.041667
-0.007292 -0.059325 -0.036357 -1.054880 25.512826 -8.022255 -0.000000 -0.000000 0.000000 0.131833 -4.111288 6.166029 1.069827 -2.636845 -3.494187 0.000000 0.000000 0.000000 -0.036370 -2.490285 -2.780777 3.399541 -1.930387 -2.066065 0.877631 -2.687797 -3.167874 -0.207691 -11.977578 2.885956 -79.723448 -9.705986 29.001926 -1.835867 -37.375608 23.077699 0.024325 -2.207073 -4.518023 5.238612 -3.431706 1.359412 70.061891 -7.323517 13.529845 -5.811064 23.186510 17.401961 0.000000 -0.000000 -0.000000 0.400656 3.959583 -7.252167 -10.756735 -25.025581 14.675200 -0.000000 -0.000000 -0.000000 6.600945 -0.935010 -24.147054 1.104703 -1.717647 10.527932 
0.972778 -0.234213 2.370115 -0.973944 24.258166 -7.401264 -0.000000 -0.000000 0.000000 -2.662314 -4.614508 7.828455 1.066136 -3.573641 -4.230621 0.000000 0.000000 0.000000 1.072178 -3.171331 -4.416757 5.119615 -2.846551 -3.371400 1.307556 -3.165575 -4.164901 1.249470 -9.334202 3.253744 -83.698116 -17.188930 28.566971 -3.478847 -29.542895 25.714227 1.104896 -3.149431 -4.405775 3.870068 -3.142843 0.480870 61.621580 -4.117637 8.006659 -0.009619 24.266216 22.571590 0.000000 -0.000000 -0.000000 0.400759 5.605693 -2.614973 -8.601816 -26.688024 11.290847 -0.000000 -0.000000 -0.000000 7.214719 -4.842269 -25.328126 0.736569 -1.639100 11.301935 
2.273769 -0.582185 5.380833 -1.660112 24.609471 -7.016674 -0.000000 0.000000 -0.000000 -4.000150 -4.282813 9.874792 1.794589 -3.396773 -5.035947 0.000000 0.000000 0.000000 1.979797 -3.156809 -4.368873 5.111539 -3.164417 -4.317056 1.884709 -2.926691 -4.378167 1.172849 -7.109702 2.442648 -79.908612 -16.834121 22.465951 -1.295370 -26.211473 26.471647 1.820110 -3.103681 -4.532356 3.528371 -2.674656 0.010001 62.399680 -3.288911 12.714721 -1.565465 20.855550 21.901778 0.000000 -0.000000 -0.000000 2.739373 9.198163 0.638973 -9.154040 -27.376770 13.199360 -0.000000 -0.000000 -0.000000 8.205815 -5.968648 -26.586143 0.217407 -1.783457 14.812242 
3.582745 -1.093203 8.651207 -2.585558 26.358164 -6.737307 -0.000000 -0.000000 -0.000000 -4.754428 -3.297526 10.673580 2.166811 -3.351216 -5.247299 0.000000 0.000000 0.000000 2.366024 -3.128790 -4.543078 4.871094 -3.563732 -4.645046 2.359443 -2.882793 -4.491410 0.358380 -5.836132 2.081795 -77.584892 -17.097197 19.228332 0.798909 -23.180329 24.878574 2.305840 -3.026336 -4.787748 2.540311 -2.922260 -0.056147 66.031552 -5.074962 11.762743 -0.976040 19.396452 19.864839 0.000000 -0.000000 -0.000000 5.335327 11.212329 1.895895 -10.277617 -26.093142 18.737968 -0.000000 -0.000000 -0.000000 8.948781 -6.559828 -26.793147 -1.632462 -3.026306 18.810474 
4.813472 -1.488371 11.886798 -3.852051 28.858790 -6.837149 -0.000000 -0.000000 -0.000000 -4.290169 -2.662019 11.524537 2.553550 -3.304043 -5.196762 0.000000 0.000000 0.000000 2.676752 -3.130439 -4.695642 4.606058 -3.598897 -4.198089 2.823134 -2.838754 -4.680037 -0.611028 -5.028863 2.038032 -75.120849 -17.645756 17.186895 2.186568 -19.676859 22.830791 2.714875 -2.903369 -4.868735 2.446959 -2.674350 0.055452 68.581700 -4.952499 11.401102 0.357803 18.144064 17.985413 0.000000 -0.000000 -0.000000 6.877870 10.554883 0.854815 -11.666279 -22.609785 25.902457 -0.000000 -0.000000 -0.000000 9.659415 -6.526641 -26.024306 -2.784064 -4.371020 21.899020 
5.977000 -1.689561 14.907463 -5.196035 30.355311 -7.211864 -0.000000 -0.000000 -0.000000 -2.989648 -2.435656 12.364227 2.822839 -3.231601 -4.962724 0.000000 0.000000 0.000000 2.844042 -3.031425 -4.511068 4.106323 -3.460618 -3.099407 2.988256 -2.665292 -4.430108 -1.350559 -4.470261 1.980657 -72.979808 -17.658837 15.636420 2.690204 -16.829535 20.875080 2.878764 -2.799018 -4.698432 2.670535 -2.163299 0.173037 70.189798 -3.731972 10.856461 1.040786 17.889035 16.805910 0.000000 -0.000000 -0.000000 8.141516 8.065357 -2.701573 -12.796464 -18.310743 34.239687 -0.000000 -0.000000 -0.000000 10.528378 -6.097487 -25.001242 -2.675857 -4.187430 24.153483 
7.060745 -1.709548 17.629087 -6.162304 29.898876 -7.559281 -0.000000 -0.000000 -0.000000 -1.540602 -2.322305 13.024150 2.903161 -3.112767 -4.579028 0.000000 0.000000 0.000000 2.843816 -2.829742 -4.095823 3.643761 -3.104846 -1.952098 2.954742 -2.471591 -4.019497 -2.030369 -3.910072 1.899904 -71.640032 -16.473159 13.835377 2.305479 -16.190970 19.625473 2.884580 -2.661595 -4.387399 3.054559 -1.481898 0.309349 71.364506 -2.353782 9.630757 1.330285 18.222151 15.820945 -0.000000 -0.000000 -0.000000 8.274708 5.976228 -8.850694 -13.177775 -14.492775 41.588214 -0.000000 -0.000000 -0.000000 11.195008 -5.516569 -23.408740 -1.667805 -2.772918 25.394452 
8.059023 -1.550930 20.088708 -6.628717 28.525856 -7.749887 -0.000000 -0.000000 -0.000000 -0.317925 -2.145050 13.489374 2.797470 -2.882250 -4.178494 0.000000 0.000000 0.000000 2.698559 -2.553101 -3.784903 3.106875 -2.898948 -0.944820 2.783139 -2.242066 -3.613445 -2.606246 -3.213043 1.827602 -70.804883 -14.234884 11.698181 1.220797 -16.624460 18.914621 2.727095 -2.452191 -4.076790 3.224417 -0.487087 0.493006 71.961417 -0.898891 9.311922 1.356082 19.256648 15.010416 -0.000000 -0.000000 -0.000000 8.434854 3.495117 -15.286942 -13.516087 -11.436987 49.200869 -0.000000 -0.000000 -0.000000 11.506798 -4.832630 -21.137508 -0.243613 -0.972848 25.384048 
8.968935 -1.233141 22.381260 -6.511509 26.601836 -7.806011 -0.000000 -0.000000 -0.000000 0.634669 -1.810617 13.940547 2.533508 -2.514513 -3.874138 0.000000 0.000000 0.000000 2.417759 -2.189196 -3.554999 2.761914 -2.572439 -0.709310 2.483562 -1.946334 -3.267285 -3.142674 -2.270188 1.755478 -70.107706 -11.285772 9.109543 -0.349198 -16.945493 18.763985 2.461981 -2.154819 -3.816120 3.157205 0.598173 0.677759 72.199029 0.556374 9.733088 1.035274 20.458872 14.081264 -0.000000 -0.000000 -0.000000 8.693209 0.888407 -20.696606 -12.145383 -8.710845 54.242452 -0.000000 -0.000000 0.000000 11.444136 -4.771410 -18.405097 1.235175 0.837041 24.446631 
9.799949 -0.823561 24.622772 -6.004163 24.655650 -7.738509 -0.000000 -0.000000 -0.000000 1.338776 -1.274809 14.137293 2.116895 -1.977451 -3.609612 0.000000 0.000000 0.000000 2.015375 -1.743658 -3.368014 2.378458 -2.212111 -1.153214 2.029083 -1.559252 -2.975224 -3.618219 -1.197955 1.668687 -69.758478 -7.541293 5.848821 -1.960733 -16.766312 19.170845 2.075400 -1.754951 -3.627485 3.054021 1.526100 0.859260 72.255019 1.875085 10.799135 0.484514 21.608692 13.092488 -0.000000 -0.000000 -0.000000 8.738408 -1.088298 -25.165518 -7.952121 -5.304080 55.995599 -0.000000 -0.000000 0.000000 11.092030 -5.296223 -15.349535 2.202284 2.520373 22.719102 
10.559150 -0.369160 26.862992 -5.235052 22.644053 -7.530281 -0.000000 -0.000000 -0.000000 1.988097 -0.533600 14.173000 1.536553 -1.282584 -3.414935 0.000000 0.000000 0.000000 1.373505 -1.173587 -3.242729 1.834396 -1.801600 -1.749018 1.393300 -1.017173 -2.704724 -4.049968 0.004320 1.554417 -70.209015 -3.841311 3.140813 -3.032891 -14.526751 19.365057 1.550877 -1.218433 -3.487944 3.034833 2.226915 1.050878 72.131339 3.208686 12.276724 0.049250 22.545135 12.261324 -0.000000 -0.000000 -0.000000 7.971648 -1.415306 -27.893554 -2.496296 -2.029123 54.619525 -0.000000 -0.000000 0.000000 10.485262 -6.362101 -12.148883 2.806294 4.283525 20.565974 
11.257982 0.033386 29.110881 -4.412272 20.747294 -7.271348 0.000000 -0.000000 -0.000000 2.682189 0.260733 14.491804 0.699629 -0.344398 -3.296599 0.000000 0.000000 0.000000 0.576675 -0.463639 -3.058842 1.207902 -1.299592 -2.341250 0.597430 -0.263223 -2.501286 -4.547493 1.169439 1.438224 -71.084612 -0.804372 1.765588 -3.845338 -12.786023 19.786456 0.741679 -0.499498 -3.333464 2.726740 2.898255 1.170497 71.846806 4.596019 14.096803 -0.078825 23.197979 11.621886 -0.000000 -0.000000 -0.000000 6.025427 0.034729 -29.399438 2.137693 0.909365 49.561066 -0.000000 -0.000000 0.000000 9.840942 -7.466316 -9.029846 3.241910 6.021600 18.542772 
